<mxfile host="app.diagrams.net" modified="2021-01-14T07:47:19.347Z" agent="5.0 (Windows NT 10.0; Win64; x64) AppleWebKit/537.36 (KHTML, like Gecko) Chrome/87.0.4280.141 Safari/537.36" etag="e-QD9c-7qFDWG2jc0j6O" version="14.2.2" type="github">
  <diagram id="Mls-J58ctmcf4qp5Jo3Q" name="Page-1">
    <mxGraphModel dx="779" dy="524" grid="1" gridSize="10" guides="1" tooltips="1" connect="1" arrows="1" fold="1" page="1" pageScale="1" pageWidth="850" pageHeight="1100" math="0" shadow="0">
      <root>
        <mxCell id="0" />
        <mxCell id="1" parent="0" />
        <mxCell id="hFnFaIVmMqH2usXlZeto-1" value="" style="rounded=1;whiteSpace=wrap;html=1;" vertex="1" parent="1">
          <mxGeometry x="80" y="140" width="480" height="240" as="geometry" />
        </mxCell>
        <mxCell id="hFnFaIVmMqH2usXlZeto-2" value="Jason Ebueng&lt;br&gt;" style="text;html=1;strokeColor=none;fillColor=none;align=center;verticalAlign=middle;whiteSpace=wrap;rounded=0;" vertex="1" parent="1">
          <mxGeometry x="200" y="20" width="310" height="20" as="geometry" />
        </mxCell>
        <mxCell id="hFnFaIVmMqH2usXlZeto-3" value="&lt;i&gt;Rails / React Developer&lt;/i&gt;" style="text;html=1;strokeColor=none;fillColor=none;align=center;verticalAlign=middle;whiteSpace=wrap;rounded=0;" vertex="1" parent="1">
          <mxGeometry x="450" y="30" width="130" height="30" as="geometry" />
        </mxCell>
        <mxCell id="hFnFaIVmMqH2usXlZeto-12" value="Bootcamp Developer" style="shape=step;perimeter=stepPerimeter;whiteSpace=wrap;html=1;fixedSize=1;fontColor=#8C8C8C;" vertex="1" parent="1">
          <mxGeometry x="90" y="170" width="100" height="50" as="geometry" />
        </mxCell>
        <mxCell id="hFnFaIVmMqH2usXlZeto-13" value="Software Engineer&lt;br&gt;" style="shape=step;perimeter=stepPerimeter;whiteSpace=wrap;html=1;fixedSize=1;fontColor=#8C8C8C;" vertex="1" parent="1">
          <mxGeometry x="190" y="170" width="100" height="50" as="geometry" />
        </mxCell>
        <mxCell id="hFnFaIVmMqH2usXlZeto-15" value="Masters in Software Engineering&lt;br&gt;" style="shape=step;perimeter=stepPerimeter;whiteSpace=wrap;html=1;fixedSize=1;fontColor=#B5B5B5;" vertex="1" parent="1">
          <mxGeometry x="280" y="170" width="100" height="50" as="geometry" />
        </mxCell>
        <mxCell id="hFnFaIVmMqH2usXlZeto-16" value="Jason Ebueng&lt;br&gt;&lt;i&gt;Rails / React Developer&lt;/i&gt;" style="shape=step;perimeter=stepPerimeter;whiteSpace=wrap;html=1;fixedSize=1;" vertex="1" parent="1">
          <mxGeometry x="380" y="170" width="170" height="50" as="geometry" />
        </mxCell>
        <mxCell id="hFnFaIVmMqH2usXlZeto-18" style="edgeStyle=orthogonalEdgeStyle;rounded=0;orthogonalLoop=1;jettySize=auto;html=1;exitX=0.5;exitY=0;exitDx=0;exitDy=0;entryX=0.581;entryY=0;entryDx=0;entryDy=0;entryPerimeter=0;fontColor=#8C8C8C;" edge="1" parent="1" source="hFnFaIVmMqH2usXlZeto-2" target="hFnFaIVmMqH2usXlZeto-2">
          <mxGeometry relative="1" as="geometry" />
        </mxCell>
        <mxCell id="hFnFaIVmMqH2usXlZeto-23" value="" style="shape=image;verticalLabelPosition=bottom;labelBackgroundColor=#ffffff;verticalAlign=top;aspect=fixed;imageAspect=0;image=https://cdn3.iconfinder.com/data/icons/popular-services-brands-vol-2/512/ruby-on-rails-512.png;" vertex="1" parent="1">
          <mxGeometry x="280" y="280" width="80" height="80" as="geometry" />
        </mxCell>
        <mxCell id="hFnFaIVmMqH2usXlZeto-24" value="" style="rounded=1;whiteSpace=wrap;html=1;" vertex="1" parent="1">
          <mxGeometry x="75" y="430" width="480" height="240" as="geometry" />
        </mxCell>
        <mxCell id="hFnFaIVmMqH2usXlZeto-29" value="Jason Ebueng&lt;br&gt;&lt;i&gt;Rails / React Developer&lt;/i&gt;" style="shape=step;perimeter=stepPerimeter;whiteSpace=wrap;html=1;fixedSize=1;" vertex="1" parent="1">
          <mxGeometry x="200" y="470" width="170" height="50" as="geometry" />
        </mxCell>
        <mxCell id="hFnFaIVmMqH2usXlZeto-33" value="" style="shape=image;verticalLabelPosition=bottom;labelBackgroundColor=#ffffff;verticalAlign=top;aspect=fixed;imageAspect=0;image=https://upload.wikimedia.org/wikipedia/commons/thumb/a/a7/React-icon.svg/220px-React-icon.svg.png;" vertex="1" parent="1">
          <mxGeometry x="370" y="260" width="149.03" height="105" as="geometry" />
        </mxCell>
        <mxCell id="hFnFaIVmMqH2usXlZeto-36" value="" style="shape=image;verticalLabelPosition=bottom;labelBackgroundColor=#ffffff;verticalAlign=top;aspect=fixed;imageAspect=0;image=https://i.pinimg.com/originals/8a/bc/4d/8abc4d98d9df0d8a9caa486fe1aa0ac5.png;" vertex="1" parent="1">
          <mxGeometry x="130" y="272.5" width="80" height="80" as="geometry" />
        </mxCell>
        <mxCell id="hFnFaIVmMqH2usXlZeto-37" value="Text" style="text;html=1;strokeColor=none;fillColor=none;align=center;verticalAlign=middle;whiteSpace=wrap;rounded=0;fontColor=#B5B5B5;" vertex="1" parent="1">
          <mxGeometry x="290" y="410" width="40" height="20" as="geometry" />
        </mxCell>
        <mxCell id="hFnFaIVmMqH2usXlZeto-38" value="Text" style="text;html=1;strokeColor=none;fillColor=none;align=center;verticalAlign=middle;whiteSpace=wrap;rounded=0;fontColor=#B5B5B5;" vertex="1" parent="1">
          <mxGeometry x="290" y="410" width="40" height="20" as="geometry" />
        </mxCell>
        <mxCell id="hFnFaIVmMqH2usXlZeto-42" value="Linkedin" style="text;html=1;strokeColor=none;fillColor=none;align=center;verticalAlign=middle;whiteSpace=wrap;rounded=0;fontColor=#B5B5B5;" vertex="1" parent="1">
          <mxGeometry x="140" y="550" width="130" height="20" as="geometry" />
        </mxCell>
        <mxCell id="hFnFaIVmMqH2usXlZeto-45" value="Github&lt;br&gt;" style="text;html=1;strokeColor=none;fillColor=none;align=center;verticalAlign=middle;whiteSpace=wrap;rounded=0;fontColor=#B5B5B5;" vertex="1" parent="1">
          <mxGeometry x="140" y="570" width="130" height="20" as="geometry" />
        </mxCell>
      </root>
    </mxGraphModel>
  </diagram>
</mxfile>
